#!OML:ASF E:/inclinewalkrobotboard/Project1/Captureday1/Session1/subject1.ASF
:FULLY-SPECIFIED
:DEGREES
351
root 0 0 0 6.540586052509269 36.59011253500549 5.946074970694076
lowerback -6.986298198634105 -4.746968132498695 -6.23918591073085
upperback -9.618666893962354 -5.871462584664848 7.529317153705634
thorax -5.735187990407818 -1.9498699311940142 11.583047123570779
lowerneck -3.8460483942628434 -9.19266260183561 -7.352307654605114
upperneck 32.32029444882488 -11.436198072074298 -0.3144947804686158
head 11.728219620138375 -5.970808033490503 -0.35003960133521184
rclavicle -6.513760139326877E-15 5.8452730523087796E-15
rhumerus 154.5261787804724 8.964858821549736 -200.4164883964047
rradius 13.193694959541624
rwrist 87.46034368566231
rhand -16.81666430703439 8.423092648025573
rfingers 7.125020000000009
rthumb 9.362007760799655 -21.352698228273713
lclavicle 2.6737479542673656E-15 1.4145068508122153E-15
lhumerus 76.1824821848714 36.23971170655704 14.393513584995581
lradius 32.02182071100108
lwrist -24.944184551785135
lhand -17.03265381691567 18.521372719901624
lfingers 7.1250199999999575
lthumb 9.160962652926417 48.87118905103016
rfemur 154.2130216763424 -209.08947591678356 -181.6761312954365
rtibia 47.93808882069046
rfoot -81.31640583637234 -10.112935141352594
rtoes 56.85205390123532
lfemur -88.15482201778724 21.06719517602089 -58.643143646212415
ltibia 73.30235036395993
lfoot 3.959150832416718 32.913844542591775
ltoes 2.037787452119481
352
root 0 0 0 3.6661783363888496 33.09463483857698 8.006471554016658
lowerback -5.961281987555213 -4.852867383486982 -6.791962229054451
upperback -9.045626103568491 -6.011198350600826 7.070501868777139
thorax -5.838789374472377 -1.9274134201167235 11.387047647849673
lowerneck -4.261866373285952 -8.990105154399194 -7.085657053125866
upperneck 31.905849653751034 -11.20485435820632 -0.13851725269431947
head 11.606295511164433 -5.843670341804521 -0.30405816435144506
rclavicle -6.944370250739665E-15 5.986846588960746E-15
rhumerus 153.86734832447968 9.269198919713276 -200.7057766070134
rradius 13.128817753987109
rwrist 87.50563242984629
rhand -16.780621102882062 8.508073306912031
rfingers 7.125020000000008
rthumb 9.397980346176544 -21.249246938087527
lclavicle 2.3223973859344047E-15 1.7979452395014928E-15
lhumerus 74.02943703399943 36.39972081787499 14.665100903524873
lradius 30.837710120517507
lwrist -25.491850115711813
lhand -17.564318760306627 18.89378757199802
lfingers 7.1250199999999575
lthumb 8.647895260218961 49.3362281229594
rfemur 154.32390673023315 -209.39980976202088 -181.64128851313154
rtibia 48.37989663924158
rfoot -81.66880279828717 -10.185336116558569
rtoes 56.233358032748725
lfemur -87.9123463926869 20.552922823638237 -59.49483771853842
ltibia 72.78099903717829
lfoot 4.869624660455077 33.218655284759855
ltoes 1.3824251184346146
353
root 0 0 0 -0.22659391980500132 27.8965721800348 10.771152703850591
lowerback -4.621614323419555 -5.008631130216655 -7.522487622491337
upperback -8.290571057108375 -6.2209289201130265 6.4525254386162025
thorax -5.978103864442247 -1.9100828340976375 11.117389830475044
lowerneck -4.868939213678435 -8.717568851802842 -6.7629238425176
upperneck 31.247608089003492 -10.907426277377144 0.20798385547955123
head 11.417655447911118 -5.67317578626317 -0.20515022944211525
rclavicle -7.474321562595296E-15 6.1981184989007335E-15
rhumerus 153.0526127086481 9.65609068769789 -200.9646614830619
rradius 13.136061154021451
rwrist 87.46937434431354
rhand -16.742217941902993 8.629361610469669
rfingers 7.125020000000007
rthumb 9.436941765690877 -21.104262135696754
lclavicle 2.0245467213832908E-15 2.238862296066013E-15
lhumerus 71.50452490719562 36.377526723580985 15.343656050793314
lradius 29.9031681887296
lwrist -25.824241755173862
lhand -18.11182321749207 19.127446766588655
lfingers 7.125019999999959
lthumb 8.11995059421984 49.653266524343174
rfemur 154.43207401116035 -209.8391338024901 -181.62188225683013
rtibia 49.27615702581592
rfoot -81.923882683751 -10.55644341939396
rtoes 55.46269206634898
lfemur -87.65015361110211 19.885822901217935 -60.456868423886284
ltibia 72.08819408269022
lfoot 5.623955205431539 33.63945798049341
ltoes 0.7292734192347972
354
root 0 0 0 -4.313276959319893 22.149315791884096 13.65660626881999
lowerback -3.2159661649329094 -5.172480172017792 -8.288631913956966
upperback -7.495742600618991 -6.44463133445489 5.790644510585685
thorax -6.123649988665356 -1.895502057429013 10.821660144217173
lowerneck -5.540748949323239 -8.412079849033 -6.4285593327188
upperneck 30.501348147190292 -10.576825302009539 0.6258653064577024
head 11.207820603763777 -5.481652467797619 -0.08248699193397147
rclavicle -8.179384827129444E-15 6.4822020829930676E-15
rhumerus 152.01724533873534 10.13344332655221 -201.0994527537219
rradius 13.246413858463121
rwrist 87.34261984763289
rhand -16.69520446031754 8.79654393926853
rfingers 7.1250200000000055
rthumb 9.485175950742947 -20.90577200692513
lclavicle 1.7422027351110048E-15 2.7061146760085895E-15
lhumerus 68.47063147059319 36.11667443023542 16.572023299867112
lradius 29.212038231174866
lwrist -25.875375061290022
lhand -18.731186521958907 19.194884886064933
lfingers 7.125019999999964
lthumb 7.523412206349853 49.79766045906149
rfemur 154.6497826573769 -210.50481465198862 -181.67525290928398
rtibia 50.803127414565495
rfoot -81.88160551918128 -11.311305069457056
rtoes 54.447413479147286
lfemur -87.3460199097753 19.03567156519105 -61.53034360145888
ltibia 71.15208696764464
lfoot 6.145260711997938 34.200877205436846
ltoes 0.09357841048319315
355
root 0 0 0 -6.8795316466420715 18.53142739715825 15.459714130628827
lowerback -2.255568321870597 -5.259462986393602 -8.789098091645922
upperback -6.968699279144178 -6.566790112999574 5.342531969158267
thorax -6.229205205550767 -1.877891784674129 10.61286179925075
lowerneck -5.987268586236543 -8.179775804303842 -6.186219343917221
upperneck 29.998596311563222 -10.312570292071914 0.8729205054557516
head 11.066230785588512 -5.333790252891975 -0.009363903275035224
rclavicle -9.024216921520615E-15 6.7710324690942775E-15
rhumerus 150.86889766120987 10.610060464207976 -200.891750575456
rradius 13.51625950618675
rwrist 87.09030362022163
rhand -16.637888116640255 8.995618883314398
rfingers 7.125020000000004
rthumb 9.544248116751413 -20.669564115713296
lclavicle 1.4491113978768763E-15 3.047217789416039E-15
lhumerus 64.97763525777813 35.63123415934706 18.243881522233032
lradius 28.77861904026842
lwrist -25.70440321571003
lhand -19.39141017531619 19.09798110994354
lfingers 7.12501999999997
lthumb 6.888753476295719 49.76878735103721
rfemur 155.103072763375 -211.40149962993416 -181.84303913663803
rtibia 52.93451618928999
rfoot -81.14962535161527 -12.387193809067691
rtoes 53.20365082569238
lfemur -86.98615729028211 18.090119552266536 -62.61385354841121
ltibia 69.98268535966656
lfoot 6.304967866878169 34.879041987002225
ltoes -0.4288598893133848
356
root 0 0 0 -7.9022820362015125 17.181195713027986 16.164263355753327
lowerback -1.7879663238576509 -5.279721463286849 -9.002661924606445
upperback -6.732101339389415 -6.598977294400154 5.138273935765883
thorax -6.289947550788352 -1.863760011744623 10.510602724731347
lowerneck -6.184572499587379 -8.055180052550003 -6.061461282058001
upperneck 29.765333371880125 -10.159047433761456 0.9437964450233238
head 10.99878210198201 -5.252442310743797 0.011789722772352018
rclavicle -9.707799677055637E-15 6.997236477666964E-15
rhumerus 149.9296604357919 10.946251731757158 -200.2239846759543
rradius 13.981627686157761
rwrist 86.6291948148329
rhand -16.577634785829517 9.179392574157392
rfingers 7.125020000000002
rthumb 9.606227292508768 -20.449964302160758
lclavicle 1.3538146512938707E-15 3.184327734793805E-15
lhumerus 61.580086310212636 35.012485803078505 19.914396204916212
lradius 28.671372757869257
lwrist -25.456237290927326
lhand -19.96048996532312 18.874352991924585
lfingers 7.125019999999976
lthumb 6.3434625164801695 49.59295568799223
rfemur 155.77203016525715 -212.3591738010273 -182.08164854679563
rtibia 55.29664375610497
rfoot -79.45793383625443 -13.545332865689646
rtoes 51.95564336530437
lfemur -86.61874662735819 17.280193237832204 -63.515431286757675
ltibia 68.7714997248757
lfoot 6.107812296629405 35.562324905243024
ltoes -0.7108448741539153
